<?xml version="1.0" encoding="utf-8"?>
<!-- Generator: Adobe Illustrator 26.0.2, SVG Export Plug-In . SVG Version: 6.00 Build 0)  -->
<svg version="1.1" id="Ebene_1" xmlns="http://www.w3.org/2000/svg" xmlns:xlink="http://www.w3.org/1999/xlink" x="0px" y="0px"
	 viewBox="0 0 660 393" style="enable-background:new 0 0 660 393;" xml:space="preserve">
<style type="text/css">
	.st0{font-family:'RobotoCondensed-Bold';}
	.st1{font-size:30px;}
	.st2{font-family:'RobotoCondensed-Light';}
	.st3{font-size:23px;}
	.st4{fill:#E6E6E6;}
	.st5{fill:#F15A24;}
</style>
<text transform="matrix(1 0 0 1 105.5879 63.9637)" class="st0 st1">Anteil der Bevölkerung mit grossem </text>
<text transform="matrix(1 0 0 1 110.8479 99.9637)" class="st0 st1">Vertrauen in die Polizei, 2013-2018</text>
<text transform="matrix(1 0 0 1 16.8633 225.9639)" class="st2 st3">16-24-jährige</text>
<text transform="matrix(1 0 0 1 514.7725 227.9639)" class="st2 st3">total</text>
<g>
	<text transform="matrix(1 0 0 1 385.7654 335.9638)" class="st0 st1">60.6%</text>
</g>
<g>
	<text transform="matrix(1 0 0 1 200.4995 335.9638)" class="st0 st1">5</text>
	<text transform="matrix(1 0 0 1 215.6795 335.9638)" class="st0 st1">1</text>
	<text transform="matrix(1 0 0 1 228.4495 335.9638)" class="st0 st1">.</text>
	<text transform="matrix(1 0 0 1 238.3795 335.9638)" class="st0 st1">2%</text>
</g>
<g>
	<g>
		<g>
			<path class="st4" d="M231.9,219l-5.3,75.8c-41.9-2.9-73.4-39.2-70.5-81.1c2.8-39.9,35.9-70.7,75.8-70.7V219z"/>
		</g>
	</g>
	<g>
		<g>
			<path class="st5" d="M231.9,219v-76c42,0,76,34,76,76s-34,76-76,76c-2,0-3.3,0-5.3-0.2L231.9,219z"/>
		</g>
	</g>
</g>
<g>
	<g>
	</g>
	<g>
	</g>
</g>
<g>
	<path class="st4" d="M417.6,219l-46.8,59.9c-33.1-25.8-38.9-73.6-13.1-106.7c14.9-19.1,35.7-29.2,59.9-29.2V219z"/>
	<path class="st5" d="M417.6,219v-76c42,0,76,34,76,76s-34,76-76,76c-17.8,0-32.8-5.2-46.8-16.1L417.6,219z"/>
</g>
</svg>
