<?xml version="1.0" encoding="utf-8"?>
<!-- Generator: Adobe Illustrator 26.0.2, SVG Export Plug-In . SVG Version: 6.00 Build 0)  -->
<svg version="1.1" id="Ebene_1" xmlns="http://www.w3.org/2000/svg" xmlns:xlink="http://www.w3.org/1999/xlink" x="0px" y="0px"
	 viewBox="0 0 660 285" style="enable-background:new 0 0 660 285;" xml:space="preserve">
<style type="text/css">
	.st0{fill:#E6E6E6;}
	.st1{fill:#F15A24;}
	.st2{font-family:'RobotoCondensed-Light';}
	.st3{font-size:23px;}
	.st4{font-family:'RobotoCondensed-Bold';}
	.st5{font-size:30px;}
</style>
<text transform="matrix(1 0 0 1 57.1768 1890.2793)" class="st2 st3">männlich</text>
<text transform="matrix(1 0 0 1 519.856 1892.2793)" class="st2 st3">weiblich</text>
<g>
	<text transform="matrix(1 0 0 1 391.9829 2000.2793)" class="st4 st5">37.8%</text>
</g>
<g>
	<text transform="matrix(1 0 0 1 204.9829 2000.2793)" class="st4 st5">46.2%</text>
</g>
<g>
	<g>
		<g>
			<path class="st0" d="M423,1883.1l39.1,65.1c-36,21.6-82.7,10-104.3-26s-10-82.7,26-104.3c12.1-7.3,25-10.8,39.1-10.8V1883.1z"/>
		</g>
	</g>
	<g>
		<g>
			<path class="st1" d="M423,1883.1v-76c42,0,76,34,76,76c0,27.9-13,50.8-36.9,65.1L423,1883.1z"/>
		</g>
	</g>
</g>
<g>
	<g>
		<g>
			<path class="st0" d="M423.2,1882.8l52.8,54.7c-30.2,29.2-78.3,28.3-107.5-1.9c-29.2-30.2-28.3-78.3,1.9-107.5
				c14.7-14.2,32.3-21.3,52.8-21.3L423.2,1882.8L423.2,1882.8z"/>
		</g>
	</g>
	<g>
		<g>
			<path class="st1" d="M423.2,1882.8v-76c42,0,76,34,76,76c0,21.5-7.8,39.7-23.2,54.7L423.2,1882.8z"/>
		</g>
	</g>
</g>
<g>
	<g>
		<g>
			<path class="st0" d="M237.2,1882.8l18.4,73.9c-40.8,10.2-82.2-14.7-92.4-55.5s14.7-82.2,55.5-92.4c6.2-1.6,12-2.3,18.4-2.3
				V1882.8z"/>
		</g>
	</g>
	<g>
		<g>
			<path class="st1" d="M237.2,1882.8v-76.2c42.1,0,76.2,34.1,76.2,76.2c0,35.7-23.1,65.3-57.8,73.9L237.2,1882.8z"/>
		</g>
	</g>
</g>
<text transform="matrix(1 0 0 1 56.9946 124.7983)" class="st2 st3">männlich</text>
<text transform="matrix(1 0 0 1 519.6738 126.7983)" class="st2 st3">weiblich</text>
<g>
	<text transform="matrix(1 0 0 1 391.8008 234.7983)" class="st4 st5">45.9%</text>
</g>
<g>
	<text transform="matrix(1 0 0 1 204.8008 234.7983)" class="st4 st5">53.2%</text>
</g>
<g>
	<g>
	</g>
	<g>
	</g>
</g>
<g>
	<g>
		<g>
			<path class="st0" d="M237.1,117.6l-14.5,74.6c-41.2-8-68.1-47.9-60.1-89.1c7-35.9,38-61.5,74.6-61.5V117.6z"/>
		</g>
	</g>
	<g>
		<g>
			<path class="st1" d="M237.1,117.6v-76c42,0,76,34,76,76s-34,76-76,76c-5.4,0-9.2-0.4-14.5-1.4L237.1,117.6z"/>
		</g>
	</g>
</g>
<g>
	<g>
	</g>
	<g>
	</g>
</g>
<g>
	<g>
		<g>
			<path class="st0" d="M422.9,117.2l19.6,73.3c-40.5,10.8-82.1-13.2-92.9-53.6s13.2-82.1,53.6-92.9c6.6-1.8,12.8-2.6,19.6-2.6
				V117.2z"/>
		</g>
	</g>
	<g>
		<g>
			<path class="st1" d="M422.9,117.2V41.3c41.9,0,75.9,34,75.9,75.9c0,35-22.4,64.2-56.2,73.3L422.9,117.2z"/>
		</g>
	</g>
</g>
</svg>
