<?xml version="1.0" encoding="utf-8"?>
<!-- Generator: Adobe Illustrator 26.0.2, SVG Export Plug-In . SVG Version: 6.00 Build 0)  -->
<svg version="1.1" id="Ebene_1" xmlns="http://www.w3.org/2000/svg" xmlns:xlink="http://www.w3.org/1999/xlink" x="0px" y="0px"
	 viewBox="0 0 660 393" style="enable-background:new 0 0 660 393;" xml:space="preserve">
<style type="text/css">
	.st0{font-family:'RobotoCondensed-Bold';}
	.st1{font-size:30px;}
	.st2{font-family:'RobotoCondensed-Light';}
	.st3{font-size:23px;}
	.st4{fill:#E6E6E6;}
	.st5{fill:#F15A24;}
</style>
<g>
	<text transform="matrix(1 0 0 1 105.6714 64.7144)" class="st0 st1">Anteil der Bevölkerung mit grossem </text>
	<text transform="matrix(1 0 0 1 64.9014 100.7144)" class="st0 st1">Vertrauen in das Rechtssystem, 2013-2018</text>
</g>
<text transform="matrix(1 0 0 1 16.9467 226.7144)" class="st2 st3">16-24-jährige</text>
<text transform="matrix(1 0 0 1 514.856 228.7144)" class="st2 st3">total</text>
<g>
	<text transform="matrix(1 0 0 1 386.9829 336.7144)" class="st0 st1">49.5%</text>
</g>
<g>
	<text transform="matrix(1 0 0 1 199.9829 336.7144)" class="st0 st1">48.6%</text>
</g>
<g>
	<path class="st4" d="M232,219.5l7.9,75.6c-41.7,4.4-79.1-25.9-83.5-67.6c-4.4-41.7,25.9-79.1,67.6-83.5c2.3-0.2,5.6-0.4,7.9-0.4
		V219.5z"/>
	<path class="st5" d="M232,219.5v-76c42,0,76,34,76,76c0,39.6-28.6,71.4-68.1,75.6L232,219.5z"/>
</g>
<g>
	<path class="st4" d="M418,219.5l2.7,76c-41.9,1.5-77.1-31.4-78.6-73.3c-1.5-41.9,31.4-77.1,73.3-78.6c0.8,0,1.8,0,2.7,0V219.5z"/>
	<path class="st5" d="M418,219.5v-76c42,0,76,34,76,76c0,41.1-32.2,74.5-73.3,76L418,219.5z"/>
</g>
</svg>
